<?xml version="1.0" encoding="utf-8"?>
<!-- Generator: Adobe Illustrator 26.0.2, SVG Export Plug-In . SVG Version: 6.00 Build 0)  -->
<svg version="1.1" xmlns="http://www.w3.org/2000/svg" xmlns:xlink="http://www.w3.org/1999/xlink" x="0px" y="0px"
	 viewBox="0 0 1000 500" style="enable-background:new 0 0 1000 500;" xml:space="preserve">
<style type="text/css">
	.st0{opacity:0.3;fill:none;stroke:#FFFFFF;stroke-width:0.25;stroke-miterlimit:10;}
</style>
<g id="Layer_1" zoomAndPan="disable">
</g>
<g id="Layer_2">
	<polygon class="st0" points="233.2,202 116.6,269.3 0,202 0,67.3 116.6,0 233.2,67.3 	"/>
	<polygon class="st0" points="392.8,260.3 276.2,327.6 159.6,260.3 159.6,125.7 276.2,58.3 392.8,125.7 	"/>
	<polygon class="st0" points="392.8,260.3 276.2,327.6 159.6,260.3 159.6,125.7 276.2,58.3 392.8,125.7 	"/>
	<polygon class="st0" points="392.8,260.3 276.2,327.6 159.6,260.3 159.6,125.7 276.2,58.3 392.8,125.7 	"/>
	<polygon class="st0" points="533.2,202 416.6,269.3 300,202 300,67.3 416.6,0 533.2,67.3 	"/>
	<polygon class="st0" points="700,202 583.4,269.3 466.8,202 466.8,67.3 583.4,0 700,67.3 	"/>
	<polygon class="st0" points="859.6,260.3 743,327.6 626.4,260.3 626.4,125.7 743,58.3 859.6,125.7 	"/>
	<polygon class="st0" points="859.6,260.3 743,327.6 626.4,260.3 626.4,125.7 743,58.3 859.6,125.7 	"/>
	<polygon class="st0" points="859.6,260.3 743,327.6 626.4,260.3 626.4,125.7 743,58.3 859.6,125.7 	"/>
	<polygon class="st0" points="1000,202 883.4,269.3 766.8,202 766.8,67.3 883.4,0 1000,67.3 	"/>
	<polygon class="st0" points="233.2,374.3 116.6,441.7 0,374.3 0,239.7 116.6,172.4 233.2,239.7 	"/>
	<polygon class="st0" points="392.8,432.7 276.2,500 159.6,432.7 159.6,298 276.2,230.7 392.8,298 	"/>
	<polygon class="st0" points="392.8,432.7 276.2,500 159.6,432.7 159.6,298 276.2,230.7 392.8,298 	"/>
	<polygon class="st0" points="392.8,432.7 276.2,500 159.6,432.7 159.6,298 276.2,230.7 392.8,298 	"/>
	<polygon class="st0" points="533.2,374.3 416.6,441.7 300,374.3 300,239.7 416.6,172.4 533.2,239.7 	"/>
	<polygon class="st0" points="700,374.3 583.4,441.7 466.8,374.3 466.8,239.7 583.4,172.4 700,239.7 	"/>
	<polygon class="st0" points="859.6,432.7 743,500 626.4,432.7 626.4,298 743,230.7 859.6,298 	"/>
	<polygon class="st0" points="859.6,432.7 743,500 626.4,432.7 626.4,298 743,230.7 859.6,298 	"/>
	<polygon class="st0" points="859.6,432.7 743,500 626.4,432.7 626.4,298 743,230.7 859.6,298 	"/>
	<polygon class="st0" points="1000,374.3 883.4,441.7 766.8,374.3 766.8,239.7 883.4,172.4 1000,239.7 	"/>
</g>
</svg>
