<svg xmlns="http://www.w3.org/2000/svg" xmlns:xlink="http://www.w3.org/1999/xlink" viewBox="0 0 708.07 664.83"><defs><style>.cls-1{fill:none;}.cls-10,.cls-14,.cls-2{fill:#233342;}.cls-3{fill:#fff;stroke:#000;}.cls-3,.cls-7{stroke-miterlimit:10;}.cls-4{fill:#efb192;}.cls-5,.cls-7{fill:#efcab9;}.cls-6{fill:#ce8054;}.cls-7{stroke:#233342;stroke-width:5px;}.cls-8{clip-path:url(#clip-path);}.cls-9{fill:#666e75;}.cls-10{font-size:64px;font-family:Futura-CondensedExtraBold, Futura;font-weight:800;}.cls-11{letter-spacing:-0.03em;}.cls-12{letter-spacing:-0.02em;}.cls-13{letter-spacing:0.01em;}.cls-14{font-size:40px;font-family:Futura-MediumItalic, Futura;font-weight:500;font-style:italic;}.cls-15{letter-spacing:0.01em;}.cls-16{letter-spacing:-0.01em;}.cls-17{letter-spacing:0.02em;}.cls-18{letter-spacing:-0.01em;}.cls-19{letter-spacing:0.01em;}.cls-20{letter-spacing:-0.01em;}</style><clipPath id="clip-path" transform="translate(0 -19.83)"><path class="cls-1" d="M136.16,130.51,317.53,25.79a45.44,45.44,0,0,1,45.45,0L544.35,130.51a45.44,45.44,0,0,1,22.72,39.35V379.3a45.44,45.44,0,0,1-22.72,39.35L363,523.37a45.44,45.44,0,0,1-45.45,0L136.16,418.65a45.44,45.44,0,0,1-22.72-39.35V169.86A45.44,45.44,0,0,1,136.16,130.51Z"/></clipPath></defs><g id="Layer_1" data-name="Layer 1"><path class="cls-2" d="M136.14,130.63,317.51,25.92a45.44,45.44,0,0,1,45.45,0L544.33,130.63A45.45,45.45,0,0,1,567.05,170V379.42a45.45,45.45,0,0,1-22.72,39.36L363,523.49a45.44,45.44,0,0,1-45.45,0L136.14,418.78a45.45,45.45,0,0,1-22.72-39.36V170A45.45,45.45,0,0,1,136.14,130.63Z" transform="translate(0 -19.83)"/><path class="cls-2" d="M102,401.33" transform="translate(0 -19.83)"/><path class="cls-3" d="M130.93,401.33" transform="translate(0 -19.83)"/><ellipse class="cls-4" cx="340.4" cy="304" rx="14.51" ry="40.09"/><ellipse class="cls-5" cx="340.4" cy="276.51" rx="14.51" ry="40.09"/><path class="cls-6" d="M402.35,188.68" transform="translate(0 -19.83)"/><ellipse class="cls-6" cx="340.5" cy="195.96" rx="40.47" ry="85.14"/><path class="cls-6" d="M330.16,103.49,311.22,156.2a10.57,10.57,0,0,0,9.95,14.15h37.88a10.58,10.58,0,0,0,10-14.15l-18.94-52.71A10.58,10.58,0,0,0,330.16,103.49Z" transform="translate(0 -19.83)"/><rect class="cls-6" x="316.83" y="236.81" width="47.34" height="55.74" rx="10.57"/><polygon class="cls-6" points="306.04 150.9 254.11 240.83 357.96 240.83 306.04 150.9"/><polygon class="cls-6" points="374.44 150.51 322.51 240.44 426.36 240.44 374.44 150.51"/><circle class="cls-7" cx="340.4" cy="118.83" r="16.04"/><text y="-19.83"/><g class="cls-8"><path class="cls-9" d="M113.45,361.23c224.48,91.26,453.57-.37,453.57-.37v168.6H113.45Z" transform="translate(0 -19.83)"/></g><text class="cls-10" transform="translate(62.88 594.33)">ELE<tspan class="cls-11" x="86.25" y="0">V</tspan><tspan x="121.69" y="0">ATE CONSU</tspan><tspan class="cls-12" x="419.63" y="0">L</tspan><tspan x="444.97" y="0">TI</tspan><tspan class="cls-13" x="492.44" y="0">N</tspan><tspan x="533.72" y="0">G</tspan></text><text class="cls-14" transform="translate(65.05 636.2)">wi<tspan class="cls-15" x="39.43" y="0">t</tspan><tspan x="51.56" y="0">h </tspan><tspan class="cls-16" x="86" y="0">y</tspan><tspan x="106.7" y="0">ou on </tspan><tspan class="cls-15" x="223.42" y="0">t</tspan><tspan x="235.55" y="0">he </tspan><tspan class="cls-16" x="292.42" y="0">w</tspan><tspan class="cls-15" x="321.17" y="0">a</tspan><tspan x="345.64" y="0">y </tspan><tspan class="cls-17" x="379.04" y="0">t</tspan><tspan x="391.5" y="0">o p</tspan><tspan class="cls-18" x="452.4" y="0">r</tspan><tspan x="467.42" y="0">o</tspan><tspan class="cls-19" x="491.48" y="0">g</tspan><tspan class="cls-20" x="516.25" y="0">r</tspan><tspan x="531.31" y="0">ess</tspan></text></g></svg>