<svg id="Layer_1" data-name="Layer 1" xmlns="http://www.w3.org/2000/svg" viewBox="0 0 853.21 276.9"><defs><style>.cls-1{fill:#233342;}.cls-2,.cls-7{fill:#fff;}.cls-2{stroke:#000;}.cls-2,.cls-6{stroke-miterlimit:10;}.cls-3{fill:#efb192;}.cls-4,.cls-6{fill:#ce8054;}.cls-5{fill:#efcab9;}.cls-6{stroke:#efcab9;}.cls-7{font-size:200px;font-family:Futura-CondensedExtraBold, Futura;font-weight:800;}</style></defs><path class="cls-1" d="M190.34,336.43" transform="translate(6.21 -106.1)"/><path class="cls-2" d="M211.52,336.43" transform="translate(6.21 -106.1)"/><ellipse class="cls-3" cx="466.81" cy="238.4" rx="13.94" ry="38.51"/><polygon class="cls-4" points="433.81 91.33 383.93 177.72 483.68 177.72 433.81 91.33"/><ellipse class="cls-5" cx="466.81" cy="211.99" rx="13.94" ry="38.51"/><path class="cls-4" d="M520.1,214.67" transform="translate(6.21 -106.1)"/><polygon class="cls-4" points="499.51 90.96 449.63 177.34 549.38 177.34 499.51 90.96"/><ellipse class="cls-6" cx="466.91" cy="134.61" rx="38.87" ry="81.78"/><path class="cls-4" d="M451.24,132l-18.61,52a9.78,9.78,0,0,0,9.21,13.08h37.23A9.78,9.78,0,0,0,488.28,184l-18.61-52A9.79,9.79,0,0,0,451.24,132Z" transform="translate(6.21 -106.1)"/><rect class="cls-4" x="444.17" y="173.85" width="45.48" height="53.54" rx="10.57"/><path class="cls-5" d="M462.22,155.38l19.29,35.81a1.93,1.93,0,0,1-1.7,2.85H441.24a1.93,1.93,0,0,1-1.7-2.85l19.28-35.81A1.93,1.93,0,0,1,462.22,155.38Z" transform="translate(6.21 -106.1)"/><text class="cls-7" transform="translate(0 176.07)"><tspan xml:space="preserve">ELEV   TE</tspan></text></svg>