<svg xmlns="http://www.w3.org/2000/svg" width="16.048" height="16.048" viewBox="0 0 16.048 16.048">
  <g id="Group_1361" data-name="Group 1361" transform="translate(0.212 0.137)">
    <circle id="Ellipse_45" data-name="Ellipse 45" cx="8.024" cy="8.024" r="8.024" transform="translate(-0.212 -0.137)" fill="#7c3da2"/>
    <path id="travel_FILL1_wght300_GRAD0_opsz48" d="M148.473-808.07l.347-.347,1.483.209,2.687-2.7-4.835-2.634.456-.468,5.926,1.527,2.521-2.488a.59.59,0,0,1,.442-.18.609.609,0,0,1,.448.18.609.609,0,0,1,.18.448.609.609,0,0,1-.18.448l-2.5,2.506,1.527,5.935-.468.447-2.634-4.835-2.687,2.7.209,1.483-.347.347-.914-1.665Z" transform="translate(-145.402 818.426)" fill="#fff"/>
  </g>
</svg>
