<svg xmlns="http://www.w3.org/2000/svg" xmlns:xlink="http://www.w3.org/1999/xlink" width="56" height="56" viewBox="0 0 56 56"><defs><filter id="a" x="0" y="0" width="56" height="56" filterUnits="userSpaceOnUse"><feOffset dy="3" input="SourceAlpha"/><feGaussianBlur stdDeviation="3" result="b"/><feFlood flood-opacity="0.161"/><feComposite operator="in" in2="b"/><feComposite in="SourceGraphic"/></filter></defs><g transform="translate(8.824 6.272)"><g transform="matrix(1, 0, 0, 1, -8.82, -6.27)" filter="url(#a)"><circle cx="19" cy="19" r="19" transform="translate(9 6)" fill="#fff"/></g><path d="M82.189-793.37v-1.784h21.4v1.784Zm1.873-6.183L81-804.755l1.278-.238,2.081,1.843,6.718-1.813-5.083-8.531L87.718-814l8.472,7.64,6.421-1.724a1.522,1.522,0,0,1,1.457.282,1.678,1.678,0,0,1,.654,1.382,1.618,1.618,0,0,1-.342,1.011,1.627,1.627,0,0,1-.877.594Z" transform="translate(-73.802 822.744)"/></g></svg>