<svg id="Ports" xmlns="http://www.w3.org/2000/svg" width="25" height="25" viewBox="0 0 25 25">
  <g id="Ellipse_91" data-name="Ellipse 91" fill="#4b9af7" stroke="#fff" stroke-width="1">
    <circle cx="12.5" cy="12.5" r="12.5" stroke="none"/>
    <circle cx="12.5" cy="12.5" r="12" fill="none"/>
  </g>
  <path id="directions_boat_FILL1_wght300_GRAD0_opsz24" d="M91.455-880.585l-1.165-4.181a.76.76,0,0,1,.037-.428.5.5,0,0,1,.336-.324l.908-.314v-3.117a1.218,1.218,0,0,1,.367-.9,1.218,1.218,0,0,1,.9-.366h2.229v-2.094h3.491v2.094h2.229a1.218,1.218,0,0,1,.9.366,1.218,1.218,0,0,1,.367.9v3.117l.908.314a.573.573,0,0,1,.376.343.68.68,0,0,1,.024.409l-1.192,4.181a3.243,3.243,0,0,1-1.363-.5,6.064,6.064,0,0,1-1.2-1.057,6.314,6.314,0,0,1-1.249,1.11,2.7,2.7,0,0,1-1.543.461,2.7,2.7,0,0,1-1.543-.461,6.315,6.315,0,0,1-1.249-1.11,5.867,5.867,0,0,1-1.192,1.057A3.268,3.268,0,0,1,91.455-880.585ZM90-877.779v-1.047h1.222a4.767,4.767,0,0,0,1.449-.227,4.723,4.723,0,0,0,1.344-.681,4.389,4.389,0,0,0,1.344.663,5.134,5.134,0,0,0,1.449.209,5.134,5.134,0,0,0,1.449-.209,4.389,4.389,0,0,0,1.344-.663,4.723,4.723,0,0,0,1.344.681,4.767,4.767,0,0,0,1.449.227h1.222v1.047h-1.222a5.88,5.88,0,0,1-1.431-.175,6.086,6.086,0,0,1-1.361-.524,6.04,6.04,0,0,1-1.37.524,5.912,5.912,0,0,1-1.422.175,5.912,5.912,0,0,1-1.422-.175,6.04,6.04,0,0,1-1.37-.524,6.08,6.08,0,0,1-1.361.524,5.877,5.877,0,0,1-1.431.175H90Zm2.618-8.4,4.189-1.361L101-886.179v-2.771a.209.209,0,0,0-.06-.154.209.209,0,0,0-.154-.06H92.833a.209.209,0,0,0-.154.06.209.209,0,0,0-.06.154Z" transform="translate(-84.307 897.543)" fill="#fff"/>
</svg>
