<svg xmlns="http://www.w3.org/2000/svg" xmlns:xlink="http://www.w3.org/1999/xlink" width="36" height="36" viewBox="0 0 36 36">
  <defs>
    <filter id="Ellipse_49" x="0" y="0" width="36" height="36" filterUnits="userSpaceOnUse">
      <feOffset dy="3" input="SourceAlpha"/>
      <feGaussianBlur stdDeviation="3" result="blur"/>
      <feFlood flood-opacity="0.161"/>
      <feComposite operator="in" in2="blur"/>
      <feComposite in="SourceGraphic"/>
    </filter>
  </defs>
  <g id="Group_1379" data-name="Group 1379" transform="translate(-12853 -1974)">
    <g transform="matrix(1, 0, 0, 1, 12853, 1974)" filter="url(#Ellipse_49)">
      <circle id="Ellipse_49-2" data-name="Ellipse 49" cx="9" cy="9" r="9" transform="translate(9 6)" fill="#fff"/>
    </g>
    <path id="directions_boat_FILL1_wght300_GRAD0_opsz48" d="M91.081-883.431l-.861-3.061a.387.387,0,0,1,.02-.28.315.315,0,0,1,.2-.18l.754-.259v-2.747a.723.723,0,0,1,.221-.537.773.773,0,0,1,.541-.225h1.977v-1.586h2.45v1.586h1.977a.737.737,0,0,1,.541.221.737.737,0,0,1,.221.542v2.755l.762.251a.355.355,0,0,1,.2.173.337.337,0,0,1,.025.279l-.881,3.069a3,3,0,0,1-1.02-.432,5.279,5.279,0,0,1-.931-.807,5.178,5.178,0,0,1-.958.885,1.971,1.971,0,0,1-1.165.364,1.971,1.971,0,0,1-1.165-.364,5.179,5.179,0,0,1-.958-.885,5.093,5.093,0,0,1-.928.807A3.031,3.031,0,0,1,91.081-883.431ZM90-881.306v-.6h.925a3.611,3.611,0,0,0,1.1-.172,3.912,3.912,0,0,0,1.018-.494,3.613,3.613,0,0,0,1.018.481,3.887,3.887,0,0,0,1.1.159,3.887,3.887,0,0,0,1.1-.159,3.613,3.613,0,0,0,1.018-.481,3.912,3.912,0,0,0,1.018.494,3.611,3.611,0,0,0,1.1.172h.925v.6h-.925a4.293,4.293,0,0,1-1.076-.136,4.929,4.929,0,0,1-1.039-.4,4.855,4.855,0,0,1-1.052.4,4.347,4.347,0,0,1-1.062.136,4.347,4.347,0,0,1-1.062-.136,4.855,4.855,0,0,1-1.052-.4,4.929,4.929,0,0,1-1.039.4,4.293,4.293,0,0,1-1.076.136Zm1.789-6.1,3.365-1.09,3.365,1.1v-2.56a.159.159,0,0,0-.046-.117.159.159,0,0,0-.117-.046h-6.4a.159.159,0,0,0-.117.046.159.159,0,0,0-.046.117Z" transform="translate(12775.846 2875.806)"/>
  </g>
</svg>
