<svg xmlns="http://www.w3.org/2000/svg" xmlns:xlink="http://www.w3.org/1999/xlink" width="56" height="56" viewBox="0 0 56 56"><defs><filter id="a" x="0" y="0" width="56" height="56" filterUnits="userSpaceOnUse"><feOffset dy="3" input="SourceAlpha"/><feGaussianBlur stdDeviation="3" result="b"/><feFlood flood-opacity="0.161"/><feComposite operator="in" in2="b"/><feComposite in="SourceGraphic"/></filter></defs><g transform="translate(-210.425 -16.612)"><g transform="translate(219.177 22.871)"><g transform="matrix(1, 0, 0, 1, -8.75, -6.26)" filter="url(#a)"><circle cx="19" cy="19" r="19" transform="translate(9 6)" fill="#fff"/></g><path d="M44.974-782.737a3.08,3.08,0,0,1-2.259-.93,3.07,3.07,0,0,1-.932-2.258H40v-12.454a1.555,1.555,0,0,1,.486-1.135A1.555,1.555,0,0,1,41.621-800H57.263v4.512H60.1l3.674,4.89v4.674H61.855a3.075,3.075,0,0,1-.929,2.258,3.069,3.069,0,0,1-2.256.93,3.08,3.08,0,0,1-2.259-.93,3.07,3.07,0,0,1-.932-2.258H48.159a3.078,3.078,0,0,1-.929,2.256A3.066,3.066,0,0,1,44.974-782.737Zm0-1.621a1.509,1.509,0,0,0,1.108-.459,1.509,1.509,0,0,0,.459-1.108,1.509,1.509,0,0,0-.459-1.108,1.509,1.509,0,0,0-1.108-.459,1.509,1.509,0,0,0-1.108.459,1.509,1.509,0,0,0-.459,1.108,1.509,1.509,0,0,0,.459,1.108A1.509,1.509,0,0,0,44.971-784.358Zm-3.35-3.188h.594a3.575,3.575,0,0,1,1.163-1.162,2.934,2.934,0,0,1,1.567-.432,2.929,2.929,0,0,1,1.579.446,3.764,3.764,0,0,1,1.175,1.148h7.943v-10.833H41.621Zm17.047,3.188a1.509,1.509,0,0,0,1.108-.459,1.509,1.509,0,0,0,.459-1.108,1.509,1.509,0,0,0-.459-1.108,1.509,1.509,0,0,0-1.108-.459,1.509,1.509,0,0,0-1.108.459,1.509,1.509,0,0,0-.459,1.108,1.509,1.509,0,0,0,.459,1.108A1.509,1.509,0,0,0,58.668-784.358Zm-1.4-5.511h5.025l-3-4H57.263ZM48.645-792.679Z" transform="translate(-32.828 810.427)"/></g></g></svg>